<?xml version="1.0" encoding="iso-8859-1"?>
<!-- Generator: Adobe Illustrator 19.0.0, SVG Export Plug-In . SVG Version: 6.00 Build 0)  -->
<svg version="1.1" id="Capa_1" xmlns="http://www.w3.org/2000/svg" xmlns:xlink="http://www.w3.org/1999/xlink" x="0px" y="0px"
	 viewBox="0 0 512 512" style="enable-background:new 0 0 512 512;" xml:space="preserve">
<g>
	<g>
		<path d="M257.028,0.002L256,0c-5.522,0-10,4.478-10,10s4.478,10,10,10l0.97,0.002c0.01,0,0.02,0,0.03,0
			c5.509,0,9.982-4.458,9.999-9.971C267.016,4.509,262.551,0.018,257.028,0.002z"/>
	</g>
</g>
<g>
	<g>
		<path d="M450.497,89.538c-4.24-4.95-8.665-9.71-13.242-14.297c-0.08-0.086-0.152-0.177-0.235-0.26s-0.172-0.153-0.257-0.232
			c-37.7-37.578-86.31-62.679-138.859-71.334c-5.453-0.903-10.595,2.793-11.492,8.242c-0.897,5.449,2.793,10.595,8.242,11.492
			c46.865,7.718,88.456,28.729,121.233,58.823l-30.026,30.026c-3.905,3.905-3.905,10.237,0,14.143
			c1.953,1.952,4.512,2.929,7.071,2.929s5.118-0.977,7.071-2.929l30.028-30.028C468.796,138.33,492,194.625,492,256
			c0,61.476-23.636,117.528-62.287,159.571l-29.71-29.71c-3.906-3.904-10.236-3.904-14.143,0c-3.905,3.905-3.905,10.237,0,14.143
			l29.71,29.71C373.528,468.364,317.476,492,256,492s-117.528-23.636-159.571-62.287l29.71-29.71c3.905-3.905,3.905-10.237,0-14.143
			c-3.906-3.904-10.236-3.904-14.143,0l-29.71,29.71C43.636,373.528,20,317.476,20,256c0-61.503,23.168-117.776,61.905-159.953
			l30.093,30.093c1.953,1.952,4.512,2.929,7.071,2.929c2.559,0,5.118-0.977,7.071-2.929c3.905-3.905,3.905-10.237,0-14.143
			L96.052,81.909C129.2,51.496,171.38,30.387,218.953,22.89c5.456-0.859,9.182-5.979,8.321-11.435
			c-0.859-5.456-5.982-9.179-11.435-8.321c-53.219,8.388-102.471,33.6-140.603,71.616c-0.084,0.079-0.173,0.149-0.255,0.231
			c-0.072,0.072-0.133,0.15-0.203,0.224c-4.391,4.399-8.642,8.959-12.724,13.694C22.038,135.302,0,194.646,0,256
			c0,68.38,26.629,132.668,74.98,181.02C123.333,485.371,187.62,512,256,512s132.667-26.629,181.02-74.98
			C485.371,388.668,512,324.38,512,256C512,194.955,490.157,135.838,450.497,89.538z"/>
	</g>
</g>
<g>
	<g>
		<path d="M165.729,150.127h-20c-31.981,0-58,26.019-58,58c0,31.981,26.019,58,58,58h20c31.981,0,58-26.019,58-58
			C223.729,176.146,197.71,150.127,165.729,150.127z M165.729,246.127h-20c-20.953,0-38-17.047-38-38s17.047-38,38-38h20
			c20.953,0,38,17.047,38,38S186.682,246.127,165.729,246.127z"/>
	</g>
</g>
<g>
	<g>
		<path d="M366.271,150.127h-20c-31.981,0-58,26.019-58,58c0,31.981,26.019,58,58,58h20c31.981,0,58-26.019,58-58
			S398.253,150.127,366.271,150.127z M366.271,246.127h-20c-20.953,0-38-17.047-38-38s17.047-38,38-38h20c20.953,0,38,17.047,38,38
			S387.225,246.127,366.271,246.127z"/>
	</g>
</g>
<g>
	<g>
		<path d="M277.875,336h-43.75c-26.468,0-48,21.532-48,48c0,26.468,21.532,48,48,48h43.75c26.468,0,48-21.532,48-48
			C325.875,357.532,304.343,336,277.875,336z M277.875,412h-43.75c-15.439,0-28-12.561-28-28c0-15.439,12.561-28,28-28h43.75
			c15.439,0,28,12.561,28,28C305.875,399.439,293.314,412,277.875,412z"/>
	</g>
</g>
<g>
	<g>
		<path d="M285.46,279.324c-5.522,0-10,4.478-10,10c0,2.573-2.093,4.667-4.666,4.667c-5.523,0-10,4.478-10,10
			c0,5.522,4.478,10,10,10c13.601,0,24.666-11.065,24.666-24.667C295.46,283.802,290.982,279.324,285.46,279.324z"/>
	</g>
</g>
<g>
	<g>
		<path d="M238.52,293.991c-2.573,0-4.666-2.094-4.666-4.667c0-5.522-4.478-10-10-10c-5.522,0-10,4.478-10,10
			c0,13.602,11.065,24.667,24.666,24.667c5.522,0,10-4.478,10-10C248.52,298.469,244.042,293.991,238.52,293.991z"/>
	</g>
</g>
<g>
	<g>
		<path d="M460.217,284.575c-5.439-1.025-10.656,2.547-11.681,7.974c-4.597,24.376-13.689,47.379-27.023,68.368
			c-2.962,4.662-1.584,10.842,3.078,13.803c1.663,1.057,3.519,1.561,5.353,1.561c3.308,0,6.546-1.64,8.45-4.639
			c14.702-23.142,24.727-48.505,29.797-75.386C469.214,290.828,465.644,285.6,460.217,284.575z"/>
	</g>
</g>
<g>
	<g>
		<path d="M461.938,246c-5.522,0-10,4.478-10,10l-0.001,0.711c-0.021,5.522,4.438,10.018,9.961,10.039c0.013,0,0.026,0,0.04,0
			c5.504,0,9.978-4.451,9.999-9.961l0.001-0.789C471.938,250.478,467.46,246,461.938,246z"/>
	</g>
</g>
<g>
</g>
<g>
</g>
<g>
</g>
<g>
</g>
<g>
</g>
<g>
</g>
<g>
</g>
<g>
</g>
<g>
</g>
<g>
</g>
<g>
</g>
<g>
</g>
<g>
</g>
<g>
</g>
<g>
</g>
</svg>
