<?xml version="1.0" encoding="iso-8859-1"?>
<!-- Generator: Adobe Illustrator 19.0.0, SVG Export Plug-In . SVG Version: 6.00 Build 0)  -->
<svg version="1.1" id="Capa_1" xmlns="http://www.w3.org/2000/svg" xmlns:xlink="http://www.w3.org/1999/xlink" x="0px" y="0px"
	 viewBox="0 0 512 512" style="enable-background:new 0 0 512 512;" xml:space="preserve">
<g>
	<g>
		<path d="M255.999,95.947c-39.791,0-70.96,55.322-70.96,125.945c0,70.624,31.169,125.945,70.96,125.945
			c39.791,0,70.96-55.322,70.96-125.945S295.79,95.947,255.999,95.947z M255.999,332.837c-30.333,0-55.96-50.807-55.96-110.945
			s25.627-110.945,55.96-110.945s55.96,50.807,55.96,110.945C311.96,282.031,286.334,332.837,255.999,332.837z"/>
	</g>
</g>
<g>
	<g>
		<path d="M410.141,56.054c-3.736-5.04-8.484-8.415-13.964-9.997V28.088C396.176,12.6,383.575,0,368.088,0H143.91
			c-15.487,0-28.087,12.6-28.087,28.088v17.969c-5.48,1.583-10.228,4.958-13.964,9.997c-17.326,23.369-14.732,85.723,7.93,190.623
			c15.257,70.623,34.804,136.574,37.536,145.692v80.793c0,21.416,17.422,38.838,38.838,38.838h139.673
			c21.416,0,38.838-17.422,38.838-38.838v-80.793c2.732-9.118,22.28-75.069,37.536-145.692
			C424.873,141.777,427.467,79.423,410.141,56.054z M349.674,448.966h-32.216c-4.142,0-7.5,3.358-7.5,7.5c0,4.142,3.358,7.5,7.5,7.5
			h32.216v9.196h-0.001c0,13.144-10.694,23.838-23.838,23.838H186.163c-13.144,0-23.838-10.694-23.838-23.838v-9.196h125.133
			c4.142,0,7.5-3.358,7.5-7.5c0-4.142-3.358-7.5-7.5-7.5H162.325v-50.201h187.349V448.966z M387.567,243.424
			c-13.645,63.177-30.761,122.621-35.985,140.342H160.418c-5.224-17.721-22.341-77.165-35.985-140.342
			C96.4,113.629,105.807,75.916,113.91,64.987c2.548-3.437,5.451-4.969,9.414-4.969h56.135c4.142,0,7.5-3.358,7.5-7.5
			c0-4.142-3.358-7.5-7.5-7.5h-48.635v-16.93c0-7.217,5.871-13.088,13.087-13.088h224.177c7.217,0,13.088,5.871,13.088,13.088v16.93
			H209.458c-4.142,0-7.5,3.358-7.5,7.5c0,4.142,3.358,7.5,7.5,7.5h179.218c3.963,0,6.866,1.532,9.414,4.969
			C406.192,75.916,415.598,113.629,387.567,243.424z"/>
	</g>
</g>
<g>
</g>
<g>
</g>
<g>
</g>
<g>
</g>
<g>
</g>
<g>
</g>
<g>
</g>
<g>
</g>
<g>
</g>
<g>
</g>
<g>
</g>
<g>
</g>
<g>
</g>
<g>
</g>
<g>
</g>
</svg>
