<?xml version="1.0" encoding="iso-8859-1"?>
<!-- Generator: Adobe Illustrator 17.1.0, SVG Export Plug-In . SVG Version: 6.00 Build 0)  -->
<!DOCTYPE svg PUBLIC "-//W3C//DTD SVG 1.1//EN" "http://www.w3.org/Graphics/SVG/1.1/DTD/svg11.dtd">
<svg version="1.1" id="Capa_1" xmlns="http://www.w3.org/2000/svg" xmlns:xlink="http://www.w3.org/1999/xlink" x="0px" y="0px"
	 viewBox="0 0 293.316 293.316" style="enable-background:new 0 0 293.316 293.316;" xml:space="preserve">
<g>
	<path style="fill:#222220;" d="M256.571,78.57c-4.142,0-7.5,3.358-7.5,7.5v192.247H105.327V93.57h107.859
		c4.142,0,7.5-3.358,7.5-7.5V40.311c0-4.142-3.358-7.5-7.5-7.5h-71.974c-4.142,0-7.5,3.358-7.5,7.5V78.57H97.827
		c-4.142,0-7.5,3.358-7.5,7.5v199.747c0,4.142,3.358,7.5,7.5,7.5h158.744c4.142,0,7.5-3.358,7.5-7.5V86.07
		C264.071,81.928,260.713,78.57,256.571,78.57z M148.712,47.811h56.974V78.57h-56.974V47.811z"/>
	<path style="fill:#222220;" d="M103.326,59.38c1.97,0,3.9-0.8,5.3-2.2c1.39-1.39,2.19-3.33,2.19-5.3c0-1.98-0.8-3.91-2.19-5.3
		c-1.4-1.4-3.33-2.2-5.3-2.2c-1.98,0-3.91,0.8-5.31,2.2c-1.39,1.39-2.19,3.32-2.19,5.3c0,1.97,0.8,3.91,2.19,5.3
		C99.416,58.58,101.346,59.38,103.326,59.38z"/>
	<path style="fill:#222220;" d="M57.326,44.38c-1.97,0-3.91,0.8-5.3,2.2c-1.4,1.39-2.2,3.33-2.2,5.3c0,1.97,0.8,3.9,2.2,5.3
		c1.4,1.4,3.33,2.2,5.3,2.2c1.97,0,3.91-0.8,5.3-2.2c1.4-1.4,2.2-3.33,2.2-5.3c0-1.98-0.8-3.91-2.2-5.3
		C61.236,45.18,59.295,44.38,57.326,44.38z"/>
	<path style="fill:#222220;" d="M57.326,0c-1.97,0-3.91,0.8-5.3,2.2c-1.4,1.4-2.2,3.33-2.2,5.3c0,1.98,0.8,3.91,2.2,5.31
		c1.39,1.39,3.33,2.19,5.3,2.19c1.98,0,3.91-0.8,5.3-2.19c1.4-1.4,2.2-3.33,2.2-5.31c0-1.97-0.8-3.9-2.2-5.3
		C61.236,0.8,59.306,0,57.326,0z"/>
	<path style="fill:#222220;" d="M78.835,21.96c-1.98,0-3.91,0.8-5.31,2.2c-1.39,1.4-2.19,3.33-2.19,5.3c0,1.98,0.8,3.91,2.19,5.31
		c1.4,1.39,3.33,2.19,5.31,2.19c1.97,0,3.9-0.8,5.3-2.19c1.39-1.4,2.2-3.33,2.2-5.31c0-1.97-0.81-3.9-2.2-5.3
		C82.736,22.76,80.806,21.96,78.835,21.96z"/>
	<path style="fill:#222220;" d="M36.736,21.96c-1.97,0-3.9,0.8-5.3,2.2c-1.39,1.4-2.19,3.33-2.19,5.3c0,1.98,0.8,3.91,2.19,5.31
		c1.4,1.39,3.33,2.19,5.3,2.19c1.98,0,3.91-0.8,5.31-2.19c1.39-1.4,2.19-3.33,2.19-5.31c0-1.97-0.8-3.9-2.19-5.3
		C40.646,22.76,38.716,21.96,36.736,21.96z"/>
	<path style="fill:#222220;" d="M177.199,228.83c-4.142,0-7.5,3.358-7.5,7.5s3.358,7.5,7.5,7.5
		c31.918,0,57.886-25.968,57.886-57.886c0-31.919-25.968-57.887-57.886-57.887c-31.919,0-57.887,25.968-57.887,57.887
		c0,15.462,6.021,29.999,16.955,40.932c2.929,2.929,7.678,2.929,10.606,0c2.929-2.929,2.929-7.678,0-10.606
		c-8.1-8.1-12.561-18.87-12.561-30.325c0-23.648,19.239-42.887,42.887-42.887c23.647,0,42.886,19.239,42.886,42.887
		C220.085,209.591,200.846,228.83,177.199,228.83z"/>
</g>
<g>
</g>
<g>
</g>
<g>
</g>
<g>
</g>
<g>
</g>
<g>
</g>
<g>
</g>
<g>
</g>
<g>
</g>
<g>
</g>
<g>
</g>
<g>
</g>
<g>
</g>
<g>
</g>
<g>
</g>
</svg>
