<?xml version="1.0" encoding="iso-8859-1"?>
<!-- Generator: Adobe Illustrator 19.0.0, SVG Export Plug-In . SVG Version: 6.00 Build 0)  -->
<svg version="1.1" id="Capa_1" xmlns="http://www.w3.org/2000/svg" xmlns:xlink="http://www.w3.org/1999/xlink" x="0px" y="0px"
	 viewBox="0 0 512.002 512.002" style="enable-background:new 0 0 512.002 512.002;" xml:space="preserve">
<g>
	<g>
		<path d="M165.214,345.293c-0.016-0.022-0.034-0.043-0.051-0.066l-52.565-67.376c-1.896-2.429-4.804-3.849-7.884-3.849h-0.001
			c-3.08,0-5.988,1.419-7.883,3.847l-52.314,67.022c-0.115,0.147-0.226,0.297-0.331,0.449
			c-11.128,13.78-17.247,31.091-17.247,48.844c0,42.886,34.89,77.775,77.775,77.775s77.775-34.89,77.775-77.775
			C182.488,376.416,176.355,359.073,165.214,345.293z M104.713,451.94c-31.857,0-57.775-25.918-57.775-57.775
			c0-13.401,4.691-26.46,13.209-36.771c0.227-0.274,0.438-0.559,0.631-0.851l43.934-56.286l44.51,57.05
			c0.097,0.132,0.197,0.262,0.301,0.389c8.483,10.408,12.967,23.019,12.967,36.469C162.489,426.022,136.571,451.94,104.713,451.94z"
			/>
	</g>
</g>
<g>
	<g>
		<path d="M420.938,119.681V91.002c0-4.815-3.404-8.833-7.937-9.784V37.002c0-5.522-4.478-10-10-10h-48c-5.522,0-10,4.478-10,10
			v44.216c-4.532,0.951-7.937,4.97-7.937,9.784v28.694c-36.089,4.899-64,35.895-64,73.306v269c0,27.57,22.43,50,50,50h112
			c27.57,0,50-22.43,50-50v-269C485.065,155.548,457.088,124.525,420.938,119.681z M365.001,47.002h28v34h-28V47.002z
			 M357.065,101.002h43.873v18h-43.873V101.002z M293.065,240.002h73.873c5.514,0,10,4.486,10,10v160c0,5.514-4.486,10-10,10
			h-73.873V240.002z M465.065,462.002c0,16.542-13.458,30-30,30h-112c-16.542,0-30-13.458-30-30v-22h73.873
			c16.542,0,30-13.458,30-30v-160c0-16.542-13.458-30-30-30h-73.873v-27c0-29.775,24.225-54,54-54h63.873h0.127
			c29.775,0,54,24.225,54,54V462.002z"/>
	</g>
</g>
<g>
	<g>
		<path d="M111.78,233.053c-1.859-1.87-4.439-2.93-7.069-2.93s-5.21,1.06-7.07,2.93c-1.86,1.86-2.93,4.43-2.93,7.07
			c0,2.63,1.069,5.21,2.93,7.069c1.86,1.86,4.44,2.931,7.07,2.931s5.21-1.07,7.069-2.931c1.86-1.859,2.931-4.439,2.931-7.069
			C114.711,237.482,113.641,234.913,111.78,233.053z"/>
	</g>
</g>
<g>
	<g>
		<path d="M111.78,192.312c-1.859-1.859-4.439-2.93-7.069-2.93s-5.21,1.07-7.07,2.93s-2.93,4.44-2.93,7.07s1.069,5.21,2.93,7.07
			c1.86,1.87,4.44,2.93,7.07,2.93s5.21-1.061,7.069-2.93c1.86-1.86,2.931-4.44,2.931-7.07S113.641,194.172,111.78,192.312z"/>
	</g>
</g>
<g>
	<g>
		<path d="M111.78,151.583c-1.859-1.86-4.43-2.931-7.069-2.931c-2.63,0-5.21,1.07-7.07,2.931c-1.86,1.859-2.93,4.439-2.93,7.069
			c0,2.631,1.069,5.21,2.93,7.07c1.87,1.861,4.44,2.93,7.07,2.93s5.21-1.069,7.069-2.93c1.86-1.86,2.931-4.439,2.931-7.07
			C114.711,156.022,113.641,153.442,111.78,151.583z"/>
	</g>
</g>
<g>
	<g>
		<path d="M279.38,54.169h-43.513c-5.522,0-10,4.478-10,10c0,5.522,4.478,10,10,10h43.513c5.523,0,10-4.477,10-10
			C289.38,58.647,284.902,54.169,279.38,54.169z"/>
	</g>
</g>
<g>
	<g>
		<path d="M321.711,57.102c-1.86-1.87-4.44-2.93-7.07-2.93s-5.21,1.06-7.07,2.93c-1.859,1.86-2.93,4.431-2.93,7.07
			c0,2.63,1.07,5.21,2.93,7.07c1.86,1.86,4.44,2.93,7.07,2.93s5.21-1.07,7.07-2.93c1.859-1.87,2.93-4.44,2.93-7.07
			S323.571,58.962,321.711,57.102z"/>
	</g>
</g>
<g>
	<g>
		<path d="M205.011,57.092c-1.86-1.86-4.44-2.92-7.07-2.92s-5.21,1.06-7.069,2.92c-1.87,1.87-2.931,4.45-2.931,7.08
			s1.061,5.2,2.931,7.07c1.859,1.859,4.439,2.93,7.069,2.93s5.2-1.07,7.07-2.93c1.86-1.86,2.93-4.44,2.93-7.07
			C207.941,61.532,206.872,58.962,205.011,57.092z"/>
	</g>
</g>
<g>
	<g>
		<path d="M296.212,91.13c-2.698-4.818-8.795-6.535-13.611-3.836l-39.834,22.317c-4.818,2.699-6.536,8.793-3.836,13.611
			c1.833,3.272,5.231,5.114,8.732,5.114c1.654,0,3.333-0.412,4.879-1.278l39.834-22.317
			C297.195,102.042,298.912,95.949,296.212,91.13z"/>
	</g>
</g>
<g>
	<g>
		<path d="M292.376,23.596L252.542,1.279c-4.814-2.701-10.911-0.983-13.611,3.836c-2.7,4.818-0.983,10.912,3.836,13.611
			l39.834,22.317c1.546,0.867,3.224,1.278,4.879,1.278c3.501,0,6.899-1.842,8.732-5.114
			C298.912,32.389,297.194,26.295,292.376,23.596z"/>
	</g>
</g>
<g>
	<g>
		<path d="M430.938,287.002c-5.522,0-10,4.478-10,10v75.969c0,5.522,4.478,10,10,10c5.522,0,10-4.478,10-10v-75.969
			C440.938,291.48,436.46,287.002,430.938,287.002z"/>
	</g>
</g>
<g>
	<g>
		<path d="M438.011,254.932c-1.861-1.86-4.44-2.93-7.07-2.93c-2.64,0-5.21,1.069-7.069,2.93c-1.87,1.86-2.931,4.44-2.931,7.07
			s1.061,5.21,2.931,7.069c1.859,1.86,4.43,2.931,7.069,2.931c2.63,0,5.21-1.07,7.07-2.931c1.86-1.859,2.93-4.439,2.93-7.069
			S439.872,256.792,438.011,254.932z"/>
	</g>
</g>
<g>
</g>
<g>
</g>
<g>
</g>
<g>
</g>
<g>
</g>
<g>
</g>
<g>
</g>
<g>
</g>
<g>
</g>
<g>
</g>
<g>
</g>
<g>
</g>
<g>
</g>
<g>
</g>
<g>
</g>
</svg>
